<svg width="1600" height="900" viewBox="0 0 1600 900" fill="none" xmlns="http://www.w3.org/2000/svg">
  <defs>
    <linearGradient id="bg" x1="0" y1="0" x2="1600" y2="900" gradientUnits="userSpaceOnUse">
      <stop offset="0" stop-color="#F7FBFF"/>
      <stop offset="1" stop-color="#EAF4FF"/>
    </linearGradient>
    <linearGradient id="card" x1="0" y1="0" x2="1" y2="1">
      <stop offset="0" stop-color="#FFFFFF"/>
      <stop offset="1" stop-color="#F4F9FF"/>
    </linearGradient>
    <linearGradient id="accent" x1="0" y1="0" x2="1" y2="1">
      <stop offset="0" stop-color="#2B7FFF"/>
      <stop offset="1" stop-color="#18B47A"/>
    </linearGradient>
    <filter id="shadow" x="-20%" y="-20%" width="140%" height="140%">
      <feDropShadow dx="0" dy="14" stdDeviation="18" flood-color="#8AA7C7" flood-opacity="0.18"/>
    </filter>
  </defs>

  <rect width="1600" height="900" fill="url(#bg)"/>

  <circle cx="1350" cy="120" r="180" fill="#D9EEFF" opacity="0.55"/>
  <circle cx="210" cy="760" r="150" fill="#DFF8EE" opacity="0.7"/>
  <circle cx="1440" cy="760" r="90" fill="#E5F3FF" opacity="0.8"/>

  <g opacity="0.55">
    <path d="M160 160C260 110 360 110 460 160" stroke="#B8D4F2" stroke-width="4" stroke-linecap="round"/>
    <path d="M1180 210C1260 170 1360 170 1440 220" stroke="#B8D4F2" stroke-width="4" stroke-linecap="round"/>
    <path d="M1220 660C1290 620 1380 620 1450 670" stroke="#BFEAD9" stroke-width="4" stroke-linecap="round"/>
  </g>

  <g filter="url(#shadow)">
    <rect x="120" y="120" width="1360" height="660" rx="34" fill="url(#card)"/>
  </g>

  <g>
    <rect x="170" y="170" width="520" height="560" rx="28" fill="#FFFFFF"/>
    <circle cx="330" cy="330" r="90" fill="#EAF4FF"/>
    <circle cx="330" cy="300" r="34" fill="#2B7FFF" opacity="0.16"/>
    <path d="M255 425C272 381 313 350 360 350C407 350 448 381 465 425V470H255V425Z" fill="#2B7FFF" opacity="0.14"/>
    <rect x="250" y="520" width="280" height="62" rx="18" fill="#F3F9FF"/>
    <rect x="272" y="542" width="180" height="14" rx="7" fill="#B9D5F3"/>
    <circle cx="495" cy="551" r="16" fill="#2B7FFF"/>
    <path d="M490 544L502 551L490 558" stroke="white" stroke-width="3" stroke-linecap="round" stroke-linejoin="round"/>
    <rect x="250" y="610" width="210" height="16" rx="8" fill="#D1E4F8"/>
    <rect x="250" y="640" width="160" height="16" rx="8" fill="#DCEBFA"/>
  </g>

  <g>
    <rect x="760" y="210" width="580" height="470" rx="30" fill="#FFFFFF"/>
    <rect x="810" y="250" width="260" height="54" rx="16" fill="#EEF6FF"/>
    <rect x="835" y="271" width="170" height="12" rx="6" fill="#B9D5F3"/>

    <circle cx="1050" cy="450" r="92" fill="url(#accent)" opacity="0.12"/>
    <circle cx="1050" cy="450" r="54" fill="#FFFFFF" stroke="#2B7FFF" stroke-width="4"/>
    <path d="M1034 450H1066" stroke="#2B7FFF" stroke-width="4" stroke-linecap="round"/>
    <path d="M1050 434V466" stroke="#2B7FFF" stroke-width="4" stroke-linecap="round"/>

    <circle cx="900" cy="340" r="34" fill="#EAF4FF" stroke="#8FC2F2" stroke-width="3"/>
    <circle cx="1200" cy="340" r="34" fill="#E9FAF3" stroke="#7FD3AE" stroke-width="3"/>
    <circle cx="860" cy="520" r="34" fill="#FFF5E7" stroke="#F3C978" stroke-width="3"/>
    <circle cx="1240" cy="520" r="34" fill="#F3ECFF" stroke="#C3A8F6" stroke-width="3"/>

    <path d="M930 355C965 380 990 400 1015 425" stroke="#8FC2F2" stroke-width="4" stroke-linecap="round" stroke-dasharray="8 10"/>
    <path d="M1170 355C1135 380 1110 400 1085 425" stroke="#7FD3AE" stroke-width="4" stroke-linecap="round" stroke-dasharray="8 10"/>
    <path d="M890 500C935 490 970 478 1005 466" stroke="#F3C978" stroke-width="4" stroke-linecap="round" stroke-dasharray="8 10"/>
    <path d="M1210 500C1165 490 1130 478 1095 466" stroke="#C3A8F6" stroke-width="4" stroke-linecap="round" stroke-dasharray="8 10"/>

    <g transform="translate(887 327)">
      <rect x="0" y="0" width="26" height="20" rx="4" fill="#2B7FFF" opacity="0.18"/>
      <path d="M13 4L17 12H9L13 4Z" fill="#2B7FFF"/>
      <rect x="11.5" y="12" width="3" height="5" rx="1.5" fill="#2B7FFF"/>
    </g>

    <g transform="translate(1187 327)">
      <path d="M14 0L28 7V17C28 26 22 34 14 37C6 34 0 26 0 17V7L14 0Z" fill="#18B47A" opacity="0.2"/>
      <path d="M14 4L24 9V17C24 24 20 30 14 33C8 30 4 24 4 17V9L14 4Z" fill="#18B47A"/>
      <path d="M10 18L13 21L18 14" stroke="white" stroke-width="2.5" stroke-linecap="round" stroke-linejoin="round"/>
    </g>

    <g transform="translate(846 506)">
      <rect x="4" y="8" width="20" height="18" rx="3" fill="#F5B942"/>
      <rect x="0" y="4" width="28" height="6" rx="3" fill="#E19D20"/>
      <rect x="8" y="0" width="12" height="6" rx="2" fill="#E19D20"/>
    </g>

    <g transform="translate(1226 506)">
      <path d="M12 26V7" stroke="#7A4BE8" stroke-width="3.5" stroke-linecap="round"/>
      <path d="M5 13L12 6L19 13" stroke="#7A4BE8" stroke-width="3.5" stroke-linecap="round" stroke-linejoin="round"/>
      <rect x="8" y="25" width="8" height="4" rx="2" fill="#7A4BE8"/>
    </g>
  </g>

  <g opacity="0.95">
    <rect x="240" y="88" width="180" height="42" rx="21" fill="#FFFFFF"/>
    <circle cx="268" cy="109" r="7" fill="#2B7FFF"/>
    <rect x="286" y="101" width="98" height="16" rx="8" fill="#D4E7FA"/>
  </g>

  <g opacity="0.95">
    <rect x="1210" y="96" width="180" height="42" rx="21" fill="#FFFFFF"/>
    <circle cx="1238" cy="117" r="7" fill="#18B47A"/>
    <rect x="1256" y="109" width="98" height="16" rx="8" fill="#D7F3E7"/>
  </g>
</svg>
